<svg xmlns="http://www.w3.org/2000/svg" viewBox="0 0 32 32"><defs><style>.a{fill:#c5d3c9;}.b{fill:#4d4d4d;}.c{fill:#fff;}</style></defs><rect class="a" width="32" height="32"/><path class="b" d="M7.05,6.9c0,.13-.24.19-.71.19a1.39,1.39,0,0,0-1.2.5,2.85,2.85,0,0,0-.36,1.63c0,.3,0,.75,0,1.34s0,1,0,1.33a4.15,4.15,0,0,1-1.38,3.42A2.93,2.93,0,0,1,2.14,16C2.07,16,2,16,2,16s0,.09.13.09a2.17,2.17,0,0,1,1.18.54,3.84,3.84,0,0,1,1.53,3.22c0,.33,0,.81,0,1.44s0,1.12,0,1.45Q4.78,25,6.07,25h.54c.26,0,.4.05.4.2s-.21.22-.63.22a4.18,4.18,0,0,1-1.4-.2A2.91,2.91,0,0,1,3.49,24a3.62,3.62,0,0,1-.55-2c0-.32,0-.82.07-1.49s.06-1.16.06-1.49A3.15,3.15,0,0,0,2.57,17a1.68,1.68,0,0,0-1.16-.59c-.33-.05-.49-.15-.49-.31s.16-.25.49-.29a1.72,1.72,0,0,0,1.33-.85,4.47,4.47,0,0,0,.33-2c0-.46,0-1-.06-1.52s-.07-1-.07-1.3a3.6,3.6,0,0,1,.6-2,2.78,2.78,0,0,1,1.51-1.2,5.73,5.73,0,0,1,1.53-.16C6.89,6.71,7.05,6.78,7.05,6.9Z"/><path class="b" d="M13.83,6.9c0,.13-.24.19-.71.19a1.36,1.36,0,0,0-1.2.5,2.85,2.85,0,0,0-.36,1.63c0,.3,0,.75,0,1.34s.05,1,.05,1.33a4.15,4.15,0,0,1-1.38,3.42A2.93,2.93,0,0,1,8.92,16c-.08,0-.11,0-.11.08s0,.09.13.09a2.2,2.2,0,0,1,1.18.54,3.84,3.84,0,0,1,1.53,3.22c0,.33,0,.81-.05,1.44s0,1.12,0,1.45q0,2.26,1.29,2.22h.53c.27,0,.4.05.4.2s-.2.22-.62.22a4.14,4.14,0,0,1-1.4-.2A2.87,2.87,0,0,1,10.27,24a3.62,3.62,0,0,1-.55-2c0-.32,0-.82.06-1.49s.07-1.16.07-1.49A3.08,3.08,0,0,0,9.34,17a1.66,1.66,0,0,0-1.15-.59c-.33-.05-.5-.15-.5-.31s.17-.25.49-.29a1.74,1.74,0,0,0,1.34-.85,4.47,4.47,0,0,0,.33-2c0-.46,0-1-.07-1.52s-.06-1-.06-1.3a3.6,3.6,0,0,1,.6-2,2.78,2.78,0,0,1,1.51-1.2,5.73,5.73,0,0,1,1.53-.16C13.67,6.71,13.83,6.78,13.83,6.9Z"/><path class="c" d="M25.66,1.49A2.92,2.92,0,0,0,23.43.81a4.47,4.47,0,0,0-2.51,1.31,16.86,16.86,0,0,0-4,6,41.68,41.68,0,0,0-2.49,10.2q-.53,3.78-.69,7.61c0,.26,0,.51-.06.76a.69.69,0,0,1-.16-.23c-.34-.61-.64-1.25-1-1.82a5.06,5.06,0,0,0-3.75-2.32,10.63,10.63,0,0,0-1.13,0c0,.07.06.09.1.1a5.36,5.36,0,0,1,2.76,1.47,8.38,8.38,0,0,1,2.18,4A16.61,16.61,0,0,1,13.17,32h4.46c0-1.43.05-2.87.12-4.3a22.88,22.88,0,0,1,1-5.31,12.59,12.59,0,0,1,2.09-4.21l.52-.63c-.06,0-.09,0-.11,0a1,1,0,0,0-.23.11A6.79,6.79,0,0,0,18.79,20a21.46,21.46,0,0,0-2.28,5.49c0,.1-.05.19-.08.29l-.09,0c.06-1,.09-2,.17-3a64.44,64.44,0,0,1,.8-6.5A47.21,47.21,0,0,1,20.42,5.59a16.42,16.42,0,0,1,1.76-3.21,2.77,2.77,0,0,1,1.3-1,2.33,2.33,0,0,1,2.33.56,11.63,11.63,0,0,1,1,.91A3.8,3.8,0,0,0,25.66,1.49Z"/><path class="b" d="M24.22,16c0,.14-.16.24-.49.29a1.69,1.69,0,0,0-1.31.84,4.47,4.47,0,0,0-.33,2c0,.31,0,.78.06,1.4s.05,1.09.05,1.4A3.65,3.65,0,0,1,21.6,24a2.87,2.87,0,0,1-1.51,1.2,5.71,5.71,0,0,1-1.53.15c-.33,0-.49-.06-.49-.19s.24-.19.73-.19a1.35,1.35,0,0,0,1.21-.5,3,3,0,0,0,.35-1.68q0-.33-.06-1.38c0-.7-.05-1.11-.05-1.23a4.18,4.18,0,0,1,1.36-3.45A2.9,2.9,0,0,1,23,16.07c.07,0,.11-.06.11-.09s0-.09-.13-.09a2.19,2.19,0,0,1-1.19-.54,3.89,3.89,0,0,1-1.54-3.25c0-.33,0-.81.05-1.45s.06-1.12.06-1.44c0-1.52-.44-2.25-1.31-2.21h-.52c-.26,0-.4,0-.4-.18s.2-.2.58-.2a4.74,4.74,0,0,1,1.45.2A2.77,2.77,0,0,1,21.66,8a3.79,3.79,0,0,1,.54,2c0,.33,0,.83-.05,1.49s-.06,1.17-.06,1.49a3.15,3.15,0,0,0,.5,2.06,1.68,1.68,0,0,0,1.12.59C24.05,15.7,24.22,15.8,24.22,16Z"/><path class="b" d="M31,16c0,.14-.16.24-.49.29a1.67,1.67,0,0,0-1.31.84,4.47,4.47,0,0,0-.33,2c0,.31,0,.78.05,1.4s.06,1.09.06,1.4a3.65,3.65,0,0,1-.6,2.05,2.91,2.91,0,0,1-1.51,1.2,5.74,5.74,0,0,1-1.54.15c-.32,0-.49-.06-.49-.19s.25-.19.74-.19a1.35,1.35,0,0,0,1.21-.5,3.06,3.06,0,0,0,.34-1.68c0-.22,0-.68-.05-1.38S27,20.28,27,20.16a4.19,4.19,0,0,1,1.37-3.45,2.9,2.9,0,0,1,1.39-.64c.07,0,.11-.06.11-.09s-.05-.09-.14-.09a2.2,2.2,0,0,1-1.18-.54A3.9,3.9,0,0,1,27,12.1c0-.33,0-.81.06-1.45s.05-1.12.05-1.44C27.13,7.69,26.7,7,25.82,7h-.51c-.27,0-.4,0-.4-.18s.19-.2.58-.2a4.68,4.68,0,0,1,1.44.2A2.7,2.7,0,0,1,28.43,8,3.71,3.71,0,0,1,29,10c0,.33,0,.83-.06,1.49s-.05,1.17-.05,1.49a3.09,3.09,0,0,0,.5,2.06,1.66,1.66,0,0,0,1.12.59C30.83,15.7,31,15.8,31,16Z"/></svg>